# xmcd
#
# Track frame offsets:
#	187
#	14697
#	23727
#	39420
#	50147
#	62360
#	82687
#	100987
#	117125
#	132257
#	149220
#	162307
#	175902
#	192675
#	206142
#	220357
#	234545
#	253907
#	270687
#	290075
#
# Disc length: 4109 seconds
#
# Revision: 1
# Processed by: cddbd v1.5.1PL0 Copyright (c) Steve Scherf et al.
# Submitted via: CDex 1.50Beta5
#
DISCID=39100b14
DTITLE=The Academy Music Award - 栄光のアカデミー音楽賞
DYEAR=1900
DGENRE=Pop
TTITLE0=慕情
TTITLE1=戦場にかける橋
TTITLE2=ベン・ハー
TTITLE3=栄光への脱出
TTITLE4=ティファニーで朝食を
TTITLE5=ウエスト・サイド物語
TTITLE6=アラビアのロレンス
TTITLE7=いそしぎ
TTITLE8=サウンド・オブ・ミュージック
TTITLE9=ドクトル・ジバゴ
TTITLE10=野生のエルザ
TTITLE11=明日に向かって撃て
TTITLE12=ある愛の歌
TTITLE13=屋根の上のバイオリン弾き
TTITLE14=追憶
TTITLE15=スター誕生
TTITLE16=フェーム
TTITLE17=フラッシュダンス
TTITLE18=ウーマン・イン・レッド
TTITLE19=ホワイト・ナイツ/白夜
EXTD=
EXTT0=
EXTT1=
EXTT2=
EXTT3=
EXTT4=
EXTT5=
EXTT6=
EXTT7=
EXTT8=
EXTT9=
EXTT10=
EXTT11=
EXTT12=
EXTT13=
EXTT14=
EXTT15=
EXTT16=
EXTT17=
EXTT18=
EXTT19=
PLAYORDER=
